# xmcd
#
# Track frame offsets: 
#        150
#        21694
#        40234
#        56746
#        86997
#        105436
#        122458
#        138040
#        155426
#        170490
#
# Disc length: 2484 seconds
#
# Revision: 0
# Processed by: cddbd v1.5.2PL0 Copyright (c) Steve Scherf et al.
# Submitted via: ExactAudioCopy v1.2
#
DISCID=8109b20a
DTITLE=Fabrycio Beck and Bando Alabama - Fabrycio Beck and Bando Alabama
DYEAR=2018
DGENRE=Blues
TTITLE0=Rota de Colisao
TTITLE1=Tudo É Passageiro
TTITLE2=Nao Nao Nao
TTITLE3=Depois Que o Sol Nascer
TTITLE4=Nenhuma Metade Se Vai
TTITLE5=As Rosas Nao Falam
TTITLE6=Ambiente Familiar
TTITLE7=Azul
TTITLE8=Tardes Sem Fim
TTITLE9=Clone
EXTD=
EXTT0=
EXTT1=
EXTT2=
EXTT3=
EXTT4=
EXTT5=
EXTT6=
EXTT7=
EXTT8=
EXTT9=
PLAYORDER=
